<?xml version="1.0" encoding="utf-8"?>
<!-- Generator: Adobe Illustrator 21.1.0, SVG Export Plug-In . SVG Version: 6.00 Build 0)  -->
<svg version="1.1" xmlns="http://www.w3.org/2000/svg" xmlns:xlink="http://www.w3.org/1999/xlink" x="0px" y="0px"
	 viewBox="0 0 283.5 283.5" style="enable-background:new 0 0 283.5 283.5;" xml:space="preserve">
<style type="text/css">
	.st0{fill:none;stroke:#000000;stroke-width:2;stroke-miterlimit:10;}
</style>
<g id="Calque_1">
</g>
<g id="_x3C_Calque_x3E_">
	<g>
		<path d="M170.4,79.5c-6.4,0.8-10.3,2.1-11.9,3.8c-2.3,2.9-3.4,9.7-3.4,20.4v102.9h-0.4L73.4,96.2h-1.8v78.5c0,10.1,1.3,17,4,20.4
			c2.5,3.6,7.1,5.7,13.8,6.3v3.5H50.2v-3.5c7.7-0.8,12.4-3.8,14.2-9.1c0.7-2.1,1.1-8,1.1-17.7V88.9c-3-4.5-5.5-7.3-7.5-8.4
			c-1.2-0.6-3.8-0.9-7.7-1V76H75l74.4,102.4v-74.6c0-10.5-1.5-17.3-4.5-20.4c-2-2-6.6-3.3-13.7-3.8V76h39.2V79.5z"/>
	</g>
	<g>
		<path d="M247.5,209.1h-51v-3.6c5.2-0.5,8.7-1.2,10.6-2c1.8-0.7,2.7-2.2,2.7-4.5c0-3.6-7.8-15-23.4-34.1l-18.7-23.1l-9.7,9.8v35.2
			c0,7,1.3,11.8,3.8,14.3c2.5,2.3,7.3,3.8,14.4,4.4v3.6h-47.6v-3.6c7.2-0.6,12-2.2,14.6-4.7c2.3-2.7,3.4-8.2,3.4-16.5V96.9
			c0-7.6-1.5-12.6-4.5-14.9c-1.8-1.3-6.3-2.3-13.5-2.9v-3.6h48v3.6c-7.7,0.6-12.5,1.7-14.6,3.3c-2.6,2.3-4,7.1-4,14.5v47.2
			c20.6-21.5,34-36.1,40.1-43.8c5.8-7.1,8.6-12.5,8.6-16.2c0-1.9-0.8-3.2-2.3-3.8c-1.6-0.6-4.6-1-9-1.3v-3.6h43.9v3.6
			c-2.8,0.1-5.6,0.3-8.4,0.5c-2.6,0.2-5.2,1.2-7.7,2.7c-3,1.9-6.7,5.4-11,10.3L176,132.6l43.3,53.9c5.8,7,10.7,12,14.7,14.9
			c4.2,2.7,8.7,4,13.5,4V209.1z"/>
	</g>
	<circle class="st0" cx="143.9" cy="144" r="129.7"/>
</g>
</svg>
